<mxfile host="Electron" modified="2023-11-10T01:58:34.161Z" agent="Mozilla/5.0 (Windows NT 10.0; Win64; x64) AppleWebKit/537.36 (KHTML, like Gecko) draw.io/22.0.3 Chrome/114.0.5735.289 Electron/25.8.4 Safari/537.36" etag="cCShy0mbcgvUrmpEd_rW" version="22.0.3" type="device">
  <diagram name="Page-1" id="Yv_Dr-L-j3Tt58A3hcTS">
    <mxGraphModel dx="1050" dy="669" grid="1" gridSize="10" guides="1" tooltips="1" connect="1" arrows="1" fold="1" page="1" pageScale="1" pageWidth="850" pageHeight="1100" math="0" shadow="0">
      <root>
        <mxCell id="0" />
        <mxCell id="1" parent="0" />
        <mxCell id="pTIO9SH5VHw4KVgtG1qw-3" style="edgeStyle=orthogonalEdgeStyle;rounded=0;orthogonalLoop=1;jettySize=auto;html=1;entryX=0.5;entryY=0;entryDx=0;entryDy=0;" edge="1" parent="1" source="pTIO9SH5VHw4KVgtG1qw-1" target="pTIO9SH5VHw4KVgtG1qw-2">
          <mxGeometry relative="1" as="geometry" />
        </mxCell>
        <mxCell id="pTIO9SH5VHw4KVgtG1qw-1" value="start&amp;nbsp;" style="ellipse;whiteSpace=wrap;html=1;" vertex="1" parent="1">
          <mxGeometry x="340" y="20" width="120" height="80" as="geometry" />
        </mxCell>
        <mxCell id="pTIO9SH5VHw4KVgtG1qw-7" style="edgeStyle=orthogonalEdgeStyle;rounded=0;orthogonalLoop=1;jettySize=auto;html=1;entryX=0.5;entryY=0;entryDx=0;entryDy=0;" edge="1" parent="1" source="pTIO9SH5VHw4KVgtG1qw-2" target="pTIO9SH5VHw4KVgtG1qw-4">
          <mxGeometry relative="1" as="geometry" />
        </mxCell>
        <mxCell id="pTIO9SH5VHw4KVgtG1qw-2" value="Nhap a, b, c" style="shape=parallelogram;perimeter=parallelogramPerimeter;whiteSpace=wrap;html=1;fixedSize=1;" vertex="1" parent="1">
          <mxGeometry x="340" y="150" width="120" height="60" as="geometry" />
        </mxCell>
        <mxCell id="pTIO9SH5VHw4KVgtG1qw-8" style="edgeStyle=orthogonalEdgeStyle;rounded=0;orthogonalLoop=1;jettySize=auto;html=1;entryX=1;entryY=0.5;entryDx=0;entryDy=0;" edge="1" parent="1" source="pTIO9SH5VHw4KVgtG1qw-4" target="pTIO9SH5VHw4KVgtG1qw-5">
          <mxGeometry relative="1" as="geometry" />
        </mxCell>
        <mxCell id="pTIO9SH5VHw4KVgtG1qw-11" style="edgeStyle=orthogonalEdgeStyle;rounded=0;orthogonalLoop=1;jettySize=auto;html=1;entryX=0;entryY=0.5;entryDx=0;entryDy=0;" edge="1" parent="1" source="pTIO9SH5VHw4KVgtG1qw-4" target="pTIO9SH5VHw4KVgtG1qw-10">
          <mxGeometry relative="1" as="geometry" />
        </mxCell>
        <mxCell id="pTIO9SH5VHw4KVgtG1qw-12" value="false" style="edgeLabel;html=1;align=center;verticalAlign=middle;resizable=0;points=[];" vertex="1" connectable="0" parent="pTIO9SH5VHw4KVgtG1qw-11">
          <mxGeometry x="-0.1455" y="-3" relative="1" as="geometry">
            <mxPoint as="offset" />
          </mxGeometry>
        </mxCell>
        <mxCell id="pTIO9SH5VHw4KVgtG1qw-4" value="a=0" style="rhombus;whiteSpace=wrap;html=1;" vertex="1" parent="1">
          <mxGeometry x="340" y="250" width="120" height="110" as="geometry" />
        </mxCell>
        <mxCell id="pTIO9SH5VHw4KVgtG1qw-9" style="edgeStyle=orthogonalEdgeStyle;rounded=0;orthogonalLoop=1;jettySize=auto;html=1;entryX=1;entryY=0.5;entryDx=0;entryDy=0;" edge="1" parent="1" source="pTIO9SH5VHw4KVgtG1qw-5" target="pTIO9SH5VHw4KVgtG1qw-6">
          <mxGeometry relative="1" as="geometry" />
        </mxCell>
        <mxCell id="pTIO9SH5VHw4KVgtG1qw-5" value="b=0" style="rhombus;whiteSpace=wrap;html=1;" vertex="1" parent="1">
          <mxGeometry x="190" y="265" width="110" height="80" as="geometry" />
        </mxCell>
        <mxCell id="pTIO9SH5VHw4KVgtG1qw-23" style="edgeStyle=orthogonalEdgeStyle;rounded=0;orthogonalLoop=1;jettySize=auto;html=1;entryX=0.5;entryY=0;entryDx=0;entryDy=0;" edge="1" parent="1" source="pTIO9SH5VHw4KVgtG1qw-6" target="pTIO9SH5VHw4KVgtG1qw-13">
          <mxGeometry relative="1" as="geometry" />
        </mxCell>
        <mxCell id="pTIO9SH5VHw4KVgtG1qw-6" value="x= -c/a" style="rounded=0;whiteSpace=wrap;html=1;" vertex="1" parent="1">
          <mxGeometry x="30" y="275" width="120" height="55" as="geometry" />
        </mxCell>
        <mxCell id="pTIO9SH5VHw4KVgtG1qw-31" style="edgeStyle=orthogonalEdgeStyle;rounded=0;orthogonalLoop=1;jettySize=auto;html=1;" edge="1" parent="1" source="pTIO9SH5VHw4KVgtG1qw-10" target="pTIO9SH5VHw4KVgtG1qw-25">
          <mxGeometry relative="1" as="geometry" />
        </mxCell>
        <mxCell id="pTIO9SH5VHw4KVgtG1qw-10" value="dt=b*b-4ac" style="rounded=0;whiteSpace=wrap;html=1;" vertex="1" parent="1">
          <mxGeometry x="570" y="275" width="120" height="55" as="geometry" />
        </mxCell>
        <mxCell id="pTIO9SH5VHw4KVgtG1qw-46" style="edgeStyle=orthogonalEdgeStyle;rounded=0;orthogonalLoop=1;jettySize=auto;html=1;entryX=0;entryY=0.5;entryDx=0;entryDy=0;" edge="1" parent="1" source="pTIO9SH5VHw4KVgtG1qw-13" target="pTIO9SH5VHw4KVgtG1qw-24">
          <mxGeometry relative="1" as="geometry">
            <mxPoint x="80" y="700" as="targetPoint" />
            <Array as="points">
              <mxPoint x="80" y="680" />
            </Array>
          </mxGeometry>
        </mxCell>
        <mxCell id="pTIO9SH5VHw4KVgtG1qw-13" value="x" style="shape=parallelogram;perimeter=parallelogramPerimeter;whiteSpace=wrap;html=1;fixedSize=1;" vertex="1" parent="1">
          <mxGeometry x="30" y="395" width="120" height="65" as="geometry" />
        </mxCell>
        <mxCell id="pTIO9SH5VHw4KVgtG1qw-16" style="edgeStyle=orthogonalEdgeStyle;rounded=0;orthogonalLoop=1;jettySize=auto;html=1;entryX=0;entryY=0.5;entryDx=0;entryDy=0;" edge="1" parent="1" source="pTIO9SH5VHw4KVgtG1qw-14" target="pTIO9SH5VHw4KVgtG1qw-15">
          <mxGeometry relative="1" as="geometry" />
        </mxCell>
        <mxCell id="pTIO9SH5VHw4KVgtG1qw-21" value="true" style="edgeLabel;html=1;align=center;verticalAlign=middle;resizable=0;points=[];" vertex="1" connectable="0" parent="pTIO9SH5VHw4KVgtG1qw-16">
          <mxGeometry y="2" relative="1" as="geometry">
            <mxPoint as="offset" />
          </mxGeometry>
        </mxCell>
        <mxCell id="pTIO9SH5VHw4KVgtG1qw-19" style="edgeStyle=orthogonalEdgeStyle;rounded=0;orthogonalLoop=1;jettySize=auto;html=1;entryX=0.5;entryY=0;entryDx=0;entryDy=0;" edge="1" parent="1" source="pTIO9SH5VHw4KVgtG1qw-14" target="pTIO9SH5VHw4KVgtG1qw-17">
          <mxGeometry relative="1" as="geometry" />
        </mxCell>
        <mxCell id="pTIO9SH5VHw4KVgtG1qw-20" value="false" style="edgeLabel;html=1;align=center;verticalAlign=middle;resizable=0;points=[];" vertex="1" connectable="0" parent="pTIO9SH5VHw4KVgtG1qw-19">
          <mxGeometry x="-0.2615" y="-1" relative="1" as="geometry">
            <mxPoint as="offset" />
          </mxGeometry>
        </mxCell>
        <mxCell id="pTIO9SH5VHw4KVgtG1qw-14" value="c=0" style="rhombus;whiteSpace=wrap;html=1;" vertex="1" parent="1">
          <mxGeometry x="205" y="390" width="80" height="70" as="geometry" />
        </mxCell>
        <mxCell id="pTIO9SH5VHw4KVgtG1qw-15" value="ptvn" style="shape=parallelogram;perimeter=parallelogramPerimeter;whiteSpace=wrap;html=1;fixedSize=1;" vertex="1" parent="1">
          <mxGeometry x="340" y="400" width="120" height="60" as="geometry" />
        </mxCell>
        <mxCell id="pTIO9SH5VHw4KVgtG1qw-17" value="ptvn" style="shape=parallelogram;perimeter=parallelogramPerimeter;whiteSpace=wrap;html=1;fixedSize=1;" vertex="1" parent="1">
          <mxGeometry x="180" y="520" width="120" height="60" as="geometry" />
        </mxCell>
        <mxCell id="pTIO9SH5VHw4KVgtG1qw-24" value="end" style="ellipse;whiteSpace=wrap;html=1;" vertex="1" parent="1">
          <mxGeometry x="190" y="640" width="120" height="80" as="geometry" />
        </mxCell>
        <mxCell id="pTIO9SH5VHw4KVgtG1qw-25" value="dt&amp;lt;0" style="rhombus;whiteSpace=wrap;html=1;" vertex="1" parent="1">
          <mxGeometry x="540" y="390" width="80" height="80" as="geometry" />
        </mxCell>
        <mxCell id="pTIO9SH5VHw4KVgtG1qw-26" value="dt=0" style="rhombus;whiteSpace=wrap;html=1;" vertex="1" parent="1">
          <mxGeometry x="660" y="390" width="80" height="70" as="geometry" />
        </mxCell>
        <mxCell id="pTIO9SH5VHw4KVgtG1qw-27" value="ptvn" style="shape=parallelogram;perimeter=parallelogramPerimeter;whiteSpace=wrap;html=1;fixedSize=1;" vertex="1" parent="1">
          <mxGeometry x="500" y="530" width="120" height="60" as="geometry" />
        </mxCell>
        <mxCell id="pTIO9SH5VHw4KVgtG1qw-38" style="edgeStyle=orthogonalEdgeStyle;rounded=0;orthogonalLoop=1;jettySize=auto;html=1;entryX=0.5;entryY=0;entryDx=0;entryDy=0;" edge="1" parent="1" source="pTIO9SH5VHw4KVgtG1qw-32" target="pTIO9SH5VHw4KVgtG1qw-33">
          <mxGeometry relative="1" as="geometry">
            <Array as="points">
              <mxPoint x="840" y="480" />
              <mxPoint x="840" y="480" />
            </Array>
          </mxGeometry>
        </mxCell>
        <mxCell id="pTIO9SH5VHw4KVgtG1qw-32" value="x1=(-b+sqrt(dt)/2a&lt;br&gt;x2=(-b-sqrt(dt)/2a" style="rounded=0;whiteSpace=wrap;html=1;" vertex="1" parent="1">
          <mxGeometry x="770" y="400" width="120" height="60" as="geometry" />
        </mxCell>
        <mxCell id="pTIO9SH5VHw4KVgtG1qw-33" value="x1,x2" style="shape=parallelogram;perimeter=parallelogramPerimeter;whiteSpace=wrap;html=1;fixedSize=1;" vertex="1" parent="1">
          <mxGeometry x="780" y="530" width="120" height="60" as="geometry" />
        </mxCell>
        <mxCell id="pTIO9SH5VHw4KVgtG1qw-39" style="edgeStyle=orthogonalEdgeStyle;rounded=0;orthogonalLoop=1;jettySize=auto;html=1;" edge="1" parent="1" source="pTIO9SH5VHw4KVgtG1qw-34" target="pTIO9SH5VHw4KVgtG1qw-35">
          <mxGeometry relative="1" as="geometry">
            <Array as="points">
              <mxPoint x="690" y="610" />
              <mxPoint x="690" y="610" />
            </Array>
          </mxGeometry>
        </mxCell>
        <mxCell id="pTIO9SH5VHw4KVgtG1qw-34" value="x=-b/2a" style="rounded=0;whiteSpace=wrap;html=1;" vertex="1" parent="1">
          <mxGeometry x="650" y="530" width="120" height="60" as="geometry" />
        </mxCell>
        <mxCell id="pTIO9SH5VHw4KVgtG1qw-35" value="x" style="shape=parallelogram;perimeter=parallelogramPerimeter;whiteSpace=wrap;html=1;fixedSize=1;" vertex="1" parent="1">
          <mxGeometry x="630" y="670" width="120" height="60" as="geometry" />
        </mxCell>
        <mxCell id="pTIO9SH5VHw4KVgtG1qw-37" style="edgeStyle=orthogonalEdgeStyle;rounded=0;orthogonalLoop=1;jettySize=auto;html=1;entryX=0.427;entryY=-0.007;entryDx=0;entryDy=0;entryPerimeter=0;" edge="1" parent="1" source="pTIO9SH5VHw4KVgtG1qw-26" target="pTIO9SH5VHw4KVgtG1qw-34">
          <mxGeometry relative="1" as="geometry">
            <Array as="points">
              <mxPoint x="701" y="490" />
              <mxPoint x="701" y="490" />
            </Array>
          </mxGeometry>
        </mxCell>
        <mxCell id="pTIO9SH5VHw4KVgtG1qw-41" style="edgeStyle=orthogonalEdgeStyle;rounded=0;orthogonalLoop=1;jettySize=auto;html=1;entryX=0.67;entryY=0.007;entryDx=0;entryDy=0;entryPerimeter=0;" edge="1" parent="1" source="pTIO9SH5VHw4KVgtG1qw-25" target="pTIO9SH5VHw4KVgtG1qw-27">
          <mxGeometry relative="1" as="geometry" />
        </mxCell>
        <mxCell id="pTIO9SH5VHw4KVgtG1qw-42" value="" style="endArrow=none;html=1;rounded=0;" edge="1" parent="1" source="pTIO9SH5VHw4KVgtG1qw-35">
          <mxGeometry width="50" height="50" relative="1" as="geometry">
            <mxPoint x="840" y="710" as="sourcePoint" />
            <mxPoint x="840" y="590" as="targetPoint" />
            <Array as="points">
              <mxPoint x="840" y="700" />
            </Array>
          </mxGeometry>
        </mxCell>
        <mxCell id="pTIO9SH5VHw4KVgtG1qw-44" style="edgeStyle=orthogonalEdgeStyle;rounded=0;orthogonalLoop=1;jettySize=auto;html=1;entryX=0.94;entryY=0.73;entryDx=0;entryDy=0;entryPerimeter=0;" edge="1" parent="1" source="pTIO9SH5VHw4KVgtG1qw-35" target="pTIO9SH5VHw4KVgtG1qw-24">
          <mxGeometry relative="1" as="geometry" />
        </mxCell>
        <mxCell id="pTIO9SH5VHw4KVgtG1qw-47" style="edgeStyle=orthogonalEdgeStyle;rounded=0;orthogonalLoop=1;jettySize=auto;html=1;entryX=0.433;entryY=0.02;entryDx=0;entryDy=0;entryPerimeter=0;" edge="1" parent="1" source="pTIO9SH5VHw4KVgtG1qw-17" target="pTIO9SH5VHw4KVgtG1qw-24">
          <mxGeometry relative="1" as="geometry" />
        </mxCell>
      </root>
    </mxGraphModel>
  </diagram>
</mxfile>
